<svg width="32" height="32" viewBox="0 0 32 32" fill="none" xmlns="http://www.w3.org/2000/svg">
<path d="M25.3333 14.6667H17.3333V6.66671C17.3333 5.92937 16.736 5.33337 16 5.33337C15.264 5.33337 14.6666 5.92937 14.6666 6.66671V14.6667H6.66665C5.93065 14.6667 5.33331 15.2627 5.33331 16C5.33331 16.7374 5.93065 17.3334 6.66665 17.3334H14.6666V25.3334C14.6666 26.0707 15.264 26.6667 16 26.6667C16.736 26.6667 17.3333 26.0707 17.3333 25.3334V17.3334H25.3333C26.0693 17.3334 26.6666 16.7374 26.6666 16C26.6666 15.2627 26.0693 14.6667 25.3333 14.6667" fill="#303030"/>
<mask id="mask0_405_221" style="mask-type:luminance" maskUnits="userSpaceOnUse" x="5" y="5" width="22" height="22">
<path d="M25.3333 14.6667H17.3333V6.66671C17.3333 5.92937 16.736 5.33337 16 5.33337C15.264 5.33337 14.6666 5.92937 14.6666 6.66671V14.6667H6.66665C5.93065 14.6667 5.33331 15.2627 5.33331 16C5.33331 16.7374 5.93065 17.3334 6.66665 17.3334H14.6666V25.3334C14.6666 26.0707 15.264 26.6667 16 26.6667C16.736 26.6667 17.3333 26.0707 17.3333 25.3334V17.3334H25.3333C26.0693 17.3334 26.6666 16.7374 26.6666 16C26.6666 15.2627 26.0693 14.6667 25.3333 14.6667" fill="white"/>
</mask>
<g mask="url(#mask0_405_221)">
</g>
</svg>
