<svg width="32" height="32" viewBox="0 0 32 32" fill="none" xmlns="http://www.w3.org/2000/svg">
<g clip-path="url(#clip0_405_166)">
<path d="M29.3333 10.1333H28.7999V6.39994C28.7982 4.92794 27.6053 3.73501 26.1333 3.73328H5.86661C4.39461 3.73501 3.20167 4.92794 3.19994 6.39994V10.1333H2.66661C1.19461 10.135 0.0016723 11.3279 -6.10352e-05 12.7999V21.3333C0.0016723 22.8053 1.19461 23.9982 2.66661 23.9999H3.19994V27.7333C3.19994 28.0278 3.43874 28.2666 3.73327 28.2666H4.79994C5.02241 28.2667 5.22161 28.1288 5.29967 27.9205L6.76954 23.9999H25.2303L26.7002 27.9205C26.7783 28.1288 26.9775 28.2667 27.1999 28.2666H28.2666C28.5611 28.2666 28.7999 28.0278 28.7999 27.7333V23.9999H29.3333C30.8053 23.9982 31.9982 22.8053 31.9999 21.3333V12.7999C31.9982 11.3279 30.8053 10.135 29.3333 10.1333ZM4.26661 6.39994C4.26661 5.51628 4.98294 4.79994 5.86661 4.79994H26.1333C27.0169 4.79994 27.7333 5.51628 27.7333 6.39994V10.1333H26.1333C25.8387 10.1333 25.5999 10.3721 25.5999 10.6666V16.5333H6.39994V10.6666C6.39994 10.3721 6.16114 10.1333 5.86661 10.1333H4.26661V6.39994ZM1.06661 12.7999C1.06661 11.9163 1.78294 11.1999 2.66661 11.1999H5.33327V16.5333H1.06661V12.7999ZM4.43034 27.1999H4.26661V23.9999H5.63034L4.43034 27.1999ZM27.7333 27.1999H27.5695L26.3695 23.9999H27.7333V27.1999ZM30.9333 21.3333C30.9333 22.2169 30.2169 22.9333 29.3333 22.9333H2.66661C1.78294 22.9333 1.06661 22.2169 1.06661 21.3333V17.5999H30.9333V21.3333ZM30.9333 16.5333H26.6666V11.1999H29.3333C30.2169 11.1999 30.9333 11.9163 30.9333 12.7999V16.5333Z" fill="#909090"/>
</g>
<defs>
<clipPath id="clip0_405_166">
<rect width="32" height="32" fill="white"/>
</clipPath>
</defs>
</svg>
