<svg width="32" height="32" viewBox="0 0 32 32" fill="none" xmlns="http://www.w3.org/2000/svg">
<path d="M28.7499 26.0969L26.6667 6.49703C26.6667 5.26478 25.712 4.26672 24.5333 4.26672H16H7.46668C6.28801 4.26672 5.33335 5.26478 5.33335 6.49703L3.25015 26.0969C3.21921 26.2497 3.20001 26.4069 3.20001 26.5697C3.20001 27.802 4.15468 28.8001 5.33335 28.8001H16H26.6667C27.8453 28.8001 28.8 27.802 28.8 26.5697C28.8 26.4069 28.7808 26.2497 28.7499 26.0969ZM21.3333 9.73989V10.9576C21.3333 14.0321 18.9408 16.5334 16 16.5334C13.0592 16.5334 10.6667 14.0321 10.6667 10.9576V9.73989C10.0469 9.51016 9.60001 8.89683 9.60001 8.16975C9.60001 7.24641 10.3168 6.49703 11.2 6.49703C12.0832 6.49703 12.8 7.24641 12.8 8.16975V10.9576C12.8 12.8021 14.2357 14.3031 16 14.3031C17.7643 14.3031 19.2 12.8021 19.2 10.9576V8.16975C19.2 7.24641 19.9168 6.49703 20.8 6.49703C21.6832 6.49703 22.4 7.24641 22.4 8.16975C22.4 8.89683 21.9531 9.51016 21.3333 9.73989Z" fill="white"/>
</svg>
