<svg width="32" height="32" viewBox="0 0 32 32" fill="none" xmlns="http://www.w3.org/2000/svg">
<g clip-path="url(#clip0_405_171)">
<path d="M30.9999 21.5H30.4999V17.5C30.4992 16.9698 30.2883 16.4615 29.9134 16.0866C29.5385 15.7116 29.0302 15.5007 28.4999 15.5V7C28.4992 6.46978 28.2883 5.96148 27.9134 5.58655C27.5385 5.21163 27.0302 5.00069 26.4999 5H5.49994C4.96972 5.00069 4.46141 5.21163 4.08649 5.58655C3.71157 5.96148 3.50063 6.46978 3.49994 7V15.5C2.96972 15.5007 2.46141 15.7116 2.08649 16.0866C1.71157 16.4615 1.50063 16.9698 1.49994 17.5V21.5H0.999939C0.867331 21.5 0.740154 21.5527 0.646386 21.6464C0.552617 21.7402 0.499939 21.8674 0.499939 22V24C0.499939 24.1326 0.552617 24.2598 0.646386 24.3536C0.740154 24.4473 0.867331 24.5 0.999939 24.5H1.49994V26.5C1.49994 26.6326 1.55262 26.7598 1.64639 26.8536C1.74015 26.9473 1.86733 27 1.99994 27H3.49994C3.6155 27.0001 3.7275 26.96 3.81685 26.8867C3.90621 26.8135 3.96738 26.7115 3.98994 26.5981L4.40994 24.5H27.5899L28.0099 26.5981C28.0325 26.7115 28.0937 26.8135 28.183 26.8867C28.2724 26.96 28.3844 27.0001 28.4999 27H29.9999C30.1325 27 30.2597 26.9473 30.3535 26.8536C30.4473 26.7598 30.4999 26.6326 30.4999 26.5V24.5H30.9999C31.1325 24.5 31.2597 24.4473 31.3535 24.3536C31.4473 24.2598 31.4999 24.1326 31.4999 24V22C31.4999 21.8674 31.4473 21.7402 31.3535 21.6464C31.2597 21.5527 31.1325 21.5 30.9999 21.5ZM4.49994 7C4.50029 6.73489 4.60575 6.48074 4.79322 6.29328C4.98068 6.10582 5.23483 6.00035 5.49994 6H26.4999C26.765 6.00035 27.0192 6.10582 27.2067 6.29328C27.3941 6.48074 27.4996 6.73489 27.4999 7V15.5H26.4999V13.5C26.4992 12.9698 26.2883 12.4615 25.9134 12.0866C25.5385 11.7116 25.0302 11.5007 24.4999 11.5H18.4999C17.9697 11.5007 17.4614 11.7116 17.0865 12.0866C16.7116 12.4615 16.5006 12.9698 16.4999 13.5V15.5H15.4999V13.5C15.4992 12.9698 15.2883 12.4615 14.9134 12.0866C14.5385 11.7116 14.0302 11.5007 13.4999 11.5H7.49994C6.96972 11.5007 6.46141 11.7116 6.08649 12.0866C5.71157 12.4615 5.50063 12.9698 5.49994 13.5V15.5H4.49994V7ZM25.4999 13.5V15.5H17.4999V13.5C17.5003 13.2349 17.6058 12.9807 17.7932 12.7933C17.9807 12.6058 18.2348 12.5003 18.4999 12.5H24.4999C24.765 12.5003 25.0192 12.6058 25.2067 12.7933C25.3941 12.9807 25.4996 13.2349 25.4999 13.5ZM14.4999 13.5V15.5H6.49994V13.5C6.50029 13.2349 6.60575 12.9807 6.79322 12.7933C6.98068 12.6058 7.23483 12.5003 7.49994 12.5H13.4999C13.765 12.5003 14.0192 12.6058 14.2067 12.7933C14.3941 12.9807 14.4996 13.2349 14.4999 13.5ZM2.49994 17.5C2.50029 17.2349 2.60575 16.9807 2.79322 16.7933C2.98068 16.6058 3.23483 16.5003 3.49994 16.5H28.4999C28.765 16.5003 29.0192 16.6058 29.2067 16.7933C29.3941 16.9807 29.4996 17.2349 29.4999 17.5V21.5H2.49994V17.5ZM3.08994 26H2.49994V24.5H3.38994L3.08994 26ZM29.4999 26H28.9099L28.6099 24.5H29.4999V26ZM30.4999 23.5H1.49994V22.5H30.4999V23.5Z" fill="#909090"/>
</g>
<defs>
<clipPath id="clip0_405_171">
<rect width="32" height="32" fill="white"/>
</clipPath>
</defs>
</svg>
