<svg width="32" height="32" viewBox="0 0 32 32" fill="none" xmlns="http://www.w3.org/2000/svg">
<path d="M23.9999 10.6666C23.9999 8.54489 23.1571 6.51006 21.6568 5.00977C20.1565 3.50948 18.1217 2.66663 15.9999 2.66663C13.8782 2.66663 11.8434 3.50948 10.3431 5.00977C8.84279 6.51006 7.99994 8.54489 7.99994 10.6666C7.99994 20 3.99994 22.6666 3.99994 22.6666H27.9999C27.9999 22.6666 23.9999 20 23.9999 10.6666Z" stroke="#BDBDBD" stroke-width="1.5" stroke-linecap="round" stroke-linejoin="round"/>
<path d="M18.3066 28C18.0722 28.4041 17.7357 28.7395 17.3309 28.9727C16.9261 29.2059 16.4671 29.3286 15.9999 29.3286C15.5328 29.3286 15.0738 29.2059 14.669 28.9727C14.2641 28.7395 13.9277 28.4041 13.6933 28" stroke="#BDBDBD" stroke-width="1.5" stroke-linecap="round" stroke-linejoin="round"/>
</svg>
