<svg width="32" height="32" viewBox="0 0 32 32" fill="none" xmlns="http://www.w3.org/2000/svg">
<g clip-path="url(#clip0_405_155)">
<path d="M22.6642 16.0627H22.6142L23.1436 4.75062C23.1558 4.492 22.9559 4.27256 22.6973 4.2605C22.4388 4.24806 22.2193 4.44825 22.2072 4.70681L21.6757 16.0627H10.3242L9.88038 6.58294C9.71907 3.13663 9.72832 3.35969 9.72832 3.27875C9.72832 1.98781 10.7798 0.9375 12.0721 0.9375H19.9276C21.22 0.9375 22.2714 1.98781 22.2714 3.27875C22.2714 3.35544 22.2743 3.27262 22.2072 4.70681C22.1951 4.96537 22.3949 5.18481 22.6535 5.19694C22.912 5.2095 23.1315 5.00925 23.1436 4.75062C23.2106 3.3205 23.2089 3.3845 23.2089 3.27875C23.2089 1.47081 21.7369 0 19.9276 0H12.0722C10.2629 0 8.79088 1.47081 8.79088 3.27875C8.79088 3.38975 8.78113 3.14819 8.94401 6.62675L9.38576 16.0627H9.33569C8.45688 16.0627 7.74194 16.7777 7.74194 17.6565V19.9807C7.74194 20.8596 8.45688 21.5745 9.33569 21.5745H9.65826V26.7307C9.65826 26.9896 9.86813 27.1995 10.127 27.1995C10.3859 27.1995 10.5958 26.9896 10.5958 26.7307V21.5745H12.0029L11.3535 30.7101C11.3394 30.9077 11.1733 31.0625 10.9751 31.0625C10.7659 31.0625 10.5958 30.8923 10.5958 30.6832V26.7307C10.5958 26.4719 10.3859 26.262 10.127 26.262C9.86813 26.262 9.65826 26.4719 9.65826 26.7307V30.6832C9.65826 31.4093 10.249 32 10.9751 32C11.6629 32 12.2398 31.4626 12.2886 30.7765L12.9428 21.5745H19.0573L19.7115 30.7766C19.7601 31.4626 20.3371 32 21.0249 32C21.751 32 22.3417 31.4092 22.3417 30.6832V21.5745H22.6642C23.5431 21.5745 24.258 20.8596 24.258 19.9807V17.6565C24.258 16.7777 23.5431 16.0627 22.6642 16.0627ZM21.4042 30.6832C21.4042 30.8924 21.234 31.0625 21.0249 31.0625C20.8267 31.0625 20.6605 30.9077 20.6464 30.7101L19.997 21.5745H21.4042V30.6832ZM23.3205 19.9807C23.3205 20.3426 23.0261 20.637 22.6642 20.637C21.2145 20.637 10.7724 20.637 9.33557 20.637C8.97369 20.637 8.67932 20.3426 8.67932 19.9807V17.6565C8.67932 17.2946 8.97369 17.0002 9.33557 17.0002H22.6642C23.0261 17.0002 23.3205 17.2946 23.3205 17.6565V19.9807Z" fill="#909090"/>
</g>
<defs>
<clipPath id="clip0_405_155">
<rect width="32" height="32" fill="white"/>
</clipPath>
</defs>
</svg>
