<svg width="50" height="50" viewBox="0 0 50 50" fill="none" xmlns="http://www.w3.org/2000/svg">
<path fill-rule="evenodd" clip-rule="evenodd" d="M4.16754 25.0011C4.16754 13.4948 13.4946 4.16772 25.0009 4.16772C36.5071 4.16772 45.8342 13.4948 45.8342 25.0011C45.8342 36.5052 36.5071 45.8344 25.0009 45.8344C13.4946 45.8344 4.16754 36.5052 4.16754 25.0011ZM24.3335 33.1113L35.4994 19.612C36.3183 18.6243 36.1105 17.2137 35.0374 16.4599C33.9594 15.7062 32.4268 15.8997 31.6104 16.8874L22.3609 28.0671L18.3693 23.3738C17.5382 22.3929 15.9982 22.2219 14.9374 22.9891C13.8741 23.754 13.6883 25.1692 14.5194 26.1457L20.4641 33.136C20.9285 33.6805 21.6374 34 22.3878 34H22.4049C23.1627 33.9955 23.874 33.667 24.3335 33.1113Z" fill="#27AE60"/>
</svg>
