<svg width="32" height="32" viewBox="0 0 32 32" fill="none" xmlns="http://www.w3.org/2000/svg">
<path fill-rule="evenodd" clip-rule="evenodd" d="M-6.10352e-05 5C-6.10352e-05 4.73478 0.105296 4.48043 0.292832 4.29289C0.480369 4.10536 0.734722 4 0.999939 4H3.99994C4.223 4.00006 4.43964 4.0747 4.6154 4.21205C4.79116 4.3494 4.91596 4.54157 4.96994 4.758L5.77994 8H28.9999C29.1518 8.00004 29.3017 8.03469 29.4382 8.10131C29.5747 8.16792 29.6943 8.26477 29.7878 8.38448C29.8813 8.50419 29.9463 8.64363 29.9778 8.79222C30.0094 8.9408 30.0067 9.09462 29.9699 9.242L26.9699 21.242C26.916 21.4584 26.7912 21.6506 26.6154 21.788C26.4396 21.9253 26.223 21.9999 25.9999 22H7.99994C7.77688 21.9999 7.56024 21.9253 7.38448 21.788C7.20871 21.6506 7.08392 21.4584 7.02994 21.242L3.21994 6H0.999939C0.734722 6 0.480369 5.89464 0.292832 5.70711C0.105296 5.51957 -6.10352e-05 5.26522 -6.10352e-05 5ZM6.27994 10L8.77994 20H25.2199L27.7199 10H6.27994ZM9.99994 26C9.46951 26 8.9608 26.2107 8.58573 26.5858C8.21065 26.9609 7.99994 27.4696 7.99994 28C7.99994 28.5304 8.21065 29.0391 8.58573 29.4142C8.9608 29.7893 9.46951 30 9.99994 30C10.5304 30 11.0391 29.7893 11.4142 29.4142C11.7892 29.0391 11.9999 28.5304 11.9999 28C11.9999 27.4696 11.7892 26.9609 11.4142 26.5858C11.0391 26.2107 10.5304 26 9.99994 26ZM5.99994 28C5.99994 26.9391 6.42137 25.9217 7.17151 25.1716C7.92166 24.4214 8.93907 24 9.99994 24C11.0608 24 12.0782 24.4214 12.8284 25.1716C13.5785 25.9217 13.9999 26.9391 13.9999 28C13.9999 29.0609 13.5785 30.0783 12.8284 30.8284C12.0782 31.5786 11.0608 32 9.99994 32C8.93907 32 7.92166 31.5786 7.17151 30.8284C6.42137 30.0783 5.99994 29.0609 5.99994 28ZM23.9999 26C23.4695 26 22.9608 26.2107 22.5857 26.5858C22.2107 26.9609 21.9999 27.4696 21.9999 28C21.9999 28.5304 22.2107 29.0391 22.5857 29.4142C22.9608 29.7893 23.4695 30 23.9999 30C24.5304 30 25.0391 29.7893 25.4142 29.4142C25.7892 29.0391 25.9999 28.5304 25.9999 28C25.9999 27.4696 25.7892 26.9609 25.4142 26.5858C25.0391 26.2107 24.5304 26 23.9999 26ZM19.9999 28C19.9999 26.9391 20.4214 25.9217 21.1715 25.1716C21.9217 24.4214 22.9391 24 23.9999 24C25.0608 24 26.0782 24.4214 26.8284 25.1716C27.5785 25.9217 27.9999 26.9391 27.9999 28C27.9999 29.0609 27.5785 30.0783 26.8284 30.8284C26.0782 31.5786 25.0608 32 23.9999 32C22.9391 32 21.9217 31.5786 21.1715 30.8284C20.4214 30.0783 19.9999 29.0609 19.9999 28Z" fill="#808080"/>
</svg>
