<svg width="114" height="88" viewBox="0 0 114 88" fill="none" xmlns="http://www.w3.org/2000/svg">
<g filter="url(#filter0_d_405_213)">
<rect x="25" y="24" width="64" height="38" rx="8" fill="white"/>
</g>
<g clip-path="url(#clip0_405_213)">
<path d="M46.8174 55.8758V54.2211C46.8174 53.5868 46.4333 53.1731 45.7747 53.1731C45.4454 53.1731 45.0887 53.2834 44.8417 53.642C44.6496 53.3386 44.3752 53.1731 43.9636 53.1731C43.6892 53.1731 43.4148 53.2559 43.1953 53.5592V53.2283H42.619V55.8758H43.1953V54.4142C43.1953 53.9453 43.4422 53.7247 43.8264 53.7247C44.2106 53.7247 44.4027 53.9729 44.4027 54.4142V55.8758H44.9789V54.4142C44.9789 53.9453 45.2533 53.7247 45.61 53.7247C45.9942 53.7247 46.1863 53.9729 46.1863 54.4142V55.8758H46.8174ZM55.3515 53.2283H54.4185V52.4285H53.8422V53.2283H53.3208V53.7523H53.8422V54.9657C53.8422 55.5725 54.0892 55.931 54.7478 55.931C54.9947 55.931 55.2691 55.8482 55.4612 55.7379L55.2966 55.2415C55.1319 55.3518 54.9398 55.3794 54.8026 55.3794C54.5282 55.3794 54.4185 55.2139 54.4185 54.9381V53.7523H55.3515V53.2283ZM60.2359 53.1731C59.9066 53.1731 59.6871 53.3386 59.5499 53.5592V53.2283H58.9736V55.8758H59.5499V54.3866C59.5499 53.9453 59.7419 53.6971 60.0987 53.6971C60.2084 53.6971 60.3456 53.7247 60.4554 53.7523L60.62 53.2007C60.5103 53.1731 60.3456 53.1731 60.2359 53.1731ZM52.8544 53.4489C52.58 53.2559 52.1958 53.1731 51.7842 53.1731C51.1256 53.1731 50.6866 53.5041 50.6866 54.0281C50.6866 54.4693 51.0158 54.7175 51.5921 54.8003L51.8665 54.8278C52.1683 54.883 52.333 54.9657 52.333 55.1036C52.333 55.2967 52.1135 55.4346 51.7293 55.4346C51.3451 55.4346 51.0433 55.2967 50.8512 55.1588L50.5768 55.6C50.8786 55.8207 51.2902 55.931 51.7019 55.931C52.4702 55.931 52.9092 55.5725 52.9092 55.076C52.9092 54.6072 52.5525 54.359 52.0037 54.2763L51.7293 54.2487C51.4823 54.2211 51.2902 54.1659 51.2902 54.0005C51.2902 53.8074 51.4823 53.6971 51.7842 53.6971C52.1135 53.6971 52.4428 53.835 52.6074 53.9177L52.8544 53.4489ZM68.1662 53.1731C67.8369 53.1731 67.6174 53.3386 67.4802 53.5592V53.2283H66.9039V55.8758H67.4802V54.3866C67.4802 53.9453 67.6723 53.6971 68.029 53.6971C68.1388 53.6971 68.276 53.7247 68.3857 53.7523L68.5504 53.2007C68.4406 53.1731 68.276 53.1731 68.1662 53.1731ZM60.8121 54.552C60.8121 55.3518 61.3609 55.931 62.2116 55.931C62.5958 55.931 62.8702 55.8482 63.1446 55.6276L62.8702 55.1588C62.6507 55.3242 62.4311 55.407 62.1842 55.407C61.7177 55.407 61.3884 55.076 61.3884 54.552C61.3884 54.0556 61.7177 53.7247 62.1842 53.6971C62.4311 53.6971 62.6507 53.7798 62.8702 53.9453L63.1446 53.4765C62.8702 53.2559 62.5958 53.1731 62.2116 53.1731C61.3609 53.1731 60.8121 53.7523 60.8121 54.552ZM66.1356 54.552V53.2283H65.5594V53.5592C65.3673 53.311 65.0929 53.1731 64.7361 53.1731C63.9952 53.1731 63.419 53.7523 63.419 54.552C63.419 55.3518 63.9952 55.931 64.7361 55.931C65.1203 55.931 65.3947 55.7931 65.5594 55.5449V55.8758H66.1356V54.552ZM64.0227 54.552C64.0227 54.0832 64.3245 53.6971 64.8185 53.6971C65.2849 53.6971 65.6142 54.0556 65.6142 54.552C65.6142 55.0209 65.2849 55.407 64.8185 55.407C64.3245 55.3794 64.0227 55.0209 64.0227 54.552ZM57.1351 53.1731C56.3668 53.1731 55.8179 53.7247 55.8179 54.552C55.8179 55.3794 56.3668 55.931 57.1625 55.931C57.5467 55.931 57.9309 55.8207 58.2327 55.5725L57.9583 55.1588C57.7388 55.3242 57.4644 55.4346 57.19 55.4346C56.8332 55.4346 56.4765 55.2691 56.3942 54.8003H58.3425V54.5796C58.3699 53.7247 57.876 53.1731 57.1351 53.1731ZM57.1351 53.6695C57.4918 53.6695 57.7388 53.8902 57.7937 54.3038H56.4216C56.4765 53.9453 56.7235 53.6695 57.1351 53.6695ZM71.4316 54.552V52.1803H70.8554V53.5592C70.6633 53.311 70.3889 53.1731 70.0322 53.1731C69.2913 53.1731 68.715 53.7523 68.715 54.552C68.715 55.3518 69.2913 55.931 70.0322 55.931C70.4163 55.931 70.6907 55.7931 70.8554 55.5449V55.8758H71.4316V54.552ZM69.3187 54.552C69.3187 54.0832 69.6206 53.6971 70.1145 53.6971C70.581 53.6971 70.9103 54.0556 70.9103 54.552C70.9103 55.0209 70.581 55.407 70.1145 55.407C69.6206 55.3794 69.3187 55.0209 69.3187 54.552ZM50.0554 54.552V53.2283H49.4792V53.5592C49.2871 53.311 49.0127 53.1731 48.6559 53.1731C47.9151 53.1731 47.3388 53.7523 47.3388 54.552C47.3388 55.3518 47.9151 55.931 48.6559 55.931C49.0401 55.931 49.3145 55.7931 49.4792 55.5449V55.8758H50.0554V54.552ZM47.9151 54.552C47.9151 54.0832 48.2169 53.6971 48.7108 53.6971C49.1773 53.6971 49.5066 54.0556 49.5066 54.552C49.5066 55.0209 49.1773 55.407 48.7108 55.407C48.2169 55.3794 47.9151 55.0209 47.9151 54.552Z" fill="black"/>
<path d="M61.306 33.1237H52.6622V48.7331H61.306V33.1237Z" fill="#828282"/>
<path d="M53.2111 40.9283C53.2111 37.7567 54.6929 34.9437 56.9704 33.1235C55.2966 31.7998 53.1836 31 50.8786 31C45.4179 31 41 35.4401 41 40.9283C41 46.4164 45.4179 50.8565 50.8786 50.8565C53.1836 50.8565 55.2966 50.0567 56.9704 48.733C54.6929 46.9404 53.2111 44.0998 53.2111 40.9283Z" fill="#303030"/>
<path d="M72.9684 40.9283C72.9684 46.4164 68.5504 50.8565 63.0897 50.8565C60.7847 50.8565 58.6718 50.0567 56.9979 48.733C59.3029 46.9128 60.7573 44.0998 60.7573 40.9283C60.7573 37.7567 59.2755 34.9437 56.9979 33.1235C58.6718 31.7998 60.7847 31 63.0897 31C68.5504 31 72.9684 35.4677 72.9684 40.9283Z" fill="#BDBDBD"/>
</g>
<defs>
<filter id="filter0_d_405_213" x="0" y="0" width="114" height="88" filterUnits="userSpaceOnUse" color-interpolation-filters="sRGB">
<feFlood flood-opacity="0" result="BackgroundImageFix"/>
<feColorMatrix in="SourceAlpha" type="matrix" values="0 0 0 0 0 0 0 0 0 0 0 0 0 0 0 0 0 0 127 0" result="hardAlpha"/>
<feOffset dy="1"/>
<feGaussianBlur stdDeviation="12.5"/>
<feColorMatrix type="matrix" values="0 0 0 0 0 0 0 0 0 0 0 0 0 0 0 0 0 0 0.08 0"/>
<feBlend mode="normal" in2="BackgroundImageFix" result="effect1_dropShadow_405_213"/>
<feBlend mode="normal" in="SourceGraphic" in2="effect1_dropShadow_405_213" result="shape"/>
</filter>
<clipPath id="clip0_405_213">
<rect width="32" height="25" fill="white" transform="translate(41 31)"/>
</clipPath>
</defs>
</svg>
