<svg width="20" height="20" viewBox="0 0 20 20" fill="none" xmlns="http://www.w3.org/2000/svg">
<path fill-rule="evenodd" clip-rule="evenodd" d="M9.74994 19.5C15.1347 19.5 19.4999 15.1348 19.4999 9.75C19.4999 4.36522 15.1347 0 9.74994 0C4.36516 0 -6.10352e-05 4.36522 -6.10352e-05 9.75C-6.10352e-05 15.1348 4.36516 19.5 9.74994 19.5ZM9.49994 8.68934L11.9696 6.21967C12.2625 5.92678 12.7374 5.92678 13.0303 6.21967C13.3232 6.51256 13.3232 6.98744 13.0303 7.28033L10.5606 9.75L13.0303 12.2197C13.3232 12.5126 13.3232 12.9874 13.0303 13.2803C12.7374 13.5732 12.2625 13.5732 11.9696 13.2803L9.49994 10.8107L7.03027 13.2803C6.73738 13.5732 6.2625 13.5732 5.96961 13.2803C5.67672 12.9874 5.67672 12.5126 5.96961 12.2197L8.43928 9.75L5.96961 7.28033C5.67672 6.98744 5.67672 6.51256 5.96961 6.21967C6.2625 5.92678 6.73738 5.92678 7.03027 6.21967L9.49994 8.68934ZM1.49994 9.75C1.49994 14.3063 5.19359 18 9.74994 18C14.3063 18 17.9999 14.3063 17.9999 9.75C17.9999 5.19365 14.3063 1.5 9.74994 1.5C5.19359 1.5 1.49994 5.19365 1.49994 9.75Z" fill="#BDBDBD"/>
</svg>
