<svg width="32" height="32" viewBox="0 0 32 32" fill="none" xmlns="http://www.w3.org/2000/svg">
<path d="M28.7498 26.0969L26.6666 6.49703C26.6666 5.26478 25.7119 4.26672 24.5333 4.26672H15.9999H7.46659C6.28792 4.26672 5.33325 5.26478 5.33325 6.49703L3.25005 26.0969C3.21912 26.2497 3.19992 26.4069 3.19992 26.5698C3.19992 27.802 4.15459 28.8001 5.33325 28.8001H15.9999H26.6666C27.8453 28.8001 28.7999 27.802 28.7999 26.5698C28.7999 26.4069 28.7807 26.2497 28.7498 26.0969ZM21.3333 9.73989V10.9576C21.3333 14.0321 18.9407 16.5334 15.9999 16.5334C13.0591 16.5334 10.6666 14.0321 10.6666 10.9576V9.73989C10.0469 9.51017 9.59992 8.89683 9.59992 8.16975C9.59992 7.24641 10.3167 6.49703 11.1999 6.49703C12.0831 6.49703 12.7999 7.24641 12.7999 8.16975V10.9576C12.7999 12.8021 14.2357 14.3031 15.9999 14.3031C17.7642 14.3031 19.1999 12.8021 19.1999 10.9576V8.16975C19.1999 7.24641 19.9167 6.49703 20.7999 6.49703C21.6831 6.49703 22.3999 7.24641 22.3999 8.16975C22.3999 8.89683 21.953 9.51017 21.3333 9.73989Z" fill="#303030"/>
</svg>
