<svg width="32" height="32" viewBox="0 0 32 32" fill="none" xmlns="http://www.w3.org/2000/svg">
<g id="edit">
<path id="&#240;&#159;&#142;&#168; Icon &#208;&#161;olor" fill-rule="evenodd" clip-rule="evenodd" d="M5.72346 23.5807C5.44346 23.3006 5.30346 22.9113 5.33812 22.5166L5.84346 16.9566C5.89946 16.3473 6.16879 15.7727 6.60346 15.338L18.5981 3.34332C19.5341 2.40332 21.2315 2.44998 22.2195 3.43532L25.8701 7.08598L25.8715 7.08732C26.8915 8.10865 26.9328 9.73265 25.9621 10.706L13.9661 22.702C13.5328 23.1353 12.9581 23.4046 12.3475 23.4606L6.78746 23.966C6.74746 23.9686 6.70746 23.97 6.66612 23.97C6.31546 23.97 5.97546 23.8313 5.72346 23.5807ZM21.3582 11.542L17.7648 7.94865L20.3622 5.34998L23.9542 8.94198L21.3582 11.542ZM12.1062 20.8033L8.13682 21.1647L8.48882 17.2233L15.9782 9.73398L19.5728 13.33L12.1062 20.8033ZM25.3328 29.3033C26.0662 29.3033 26.6662 28.7033 26.6662 27.97C26.6662 27.238 26.0662 26.6367 25.3328 26.6367H6.66616C5.93416 26.6367 5.33282 27.238 5.33282 27.97C5.33282 28.7033 5.93416 29.3033 6.66616 29.3033H25.3328Z" fill="#808080"/>
</g>
</svg>
