<svg width="32" height="32" viewBox="0 0 32 32" fill="none" xmlns="http://www.w3.org/2000/svg">
<path d="M29.3333 16.8889C29.2163 16.8896 29.1004 16.8672 28.9921 16.823C28.8838 16.7787 28.7853 16.7135 28.7022 16.6312L16 3.92005L3.29778 16.6312C3.12773 16.7768 2.909 16.8529 2.68528 16.8442C2.46157 16.8356 2.24936 16.7429 2.09105 16.5846C1.93275 16.4262 1.84001 16.214 1.83137 15.9903C1.82273 15.7666 1.89882 15.5479 2.04444 15.3778L15.3778 2.04449C15.5443 1.87894 15.7696 1.78601 16.0044 1.78601C16.2393 1.78601 16.4646 1.87894 16.6311 2.04449L29.9644 15.3778C30.0868 15.5026 30.1696 15.6607 30.2026 15.8323C30.2355 16.0039 30.2172 16.1814 30.1499 16.3426C30.0825 16.5039 29.9692 16.6417 29.8239 16.7388C29.6787 16.836 29.5081 16.8882 29.3333 16.8889V16.8889Z" fill="#BDBDBD"/>
<path d="M13.3333 20.7083H12.7083V21.3333V29.5972H7.11111C6.80538 29.5972 6.51216 29.4758 6.29598 29.2596C6.07979 29.0434 5.95834 28.7502 5.95834 28.4444V17.8849L16.0013 7.8085L26.0417 17.8238V28.4444C26.0417 28.7502 25.9202 29.0434 25.704 29.2596C25.4878 29.4758 25.1946 29.5972 24.8889 29.5972H19.2917V21.3333V20.7083H18.6667H13.3333Z" stroke="#BDBDBD" stroke-width="1.25"/>
</svg>
