<svg width="32" height="32" viewBox="0 0 32 32" fill="none" xmlns="http://www.w3.org/2000/svg">
<path d="M29.3333 16.8889C29.2163 16.8896 29.1004 16.8672 28.9921 16.823C28.8838 16.7787 28.7853 16.7135 28.7022 16.6312L16 3.92005L3.29778 16.6312C3.12773 16.7768 2.909 16.8529 2.68528 16.8442C2.46157 16.8356 2.24936 16.7429 2.09105 16.5846C1.93275 16.4262 1.84001 16.214 1.83137 15.9903C1.82273 15.7666 1.89882 15.5479 2.04444 15.3778L15.3778 2.04449C15.5443 1.87894 15.7696 1.78601 16.0044 1.78601C16.2393 1.78601 16.4646 1.87894 16.6311 2.04449L29.9644 15.3778C30.0868 15.5026 30.1696 15.6607 30.2026 15.8323C30.2355 16.0039 30.2172 16.1814 30.1499 16.3426C30.0825 16.5039 29.9692 16.6417 29.8239 16.7388C29.6787 16.836 29.5081 16.8882 29.3333 16.8889V16.8889Z" fill="#212121"/>
<path d="M16 6.92444L5.33334 17.6267V28.4444C5.33334 28.9159 5.52064 29.3681 5.85403 29.7015C6.18743 30.0349 6.63962 30.2222 7.11111 30.2222H13.3333V21.3333H18.6667V30.2222H24.8889C25.3604 30.2222 25.8126 30.0349 26.146 29.7015C26.4794 29.3681 26.6667 28.9159 26.6667 28.4444V17.5644L16 6.92444Z" fill="#212121"/>
</svg>
