<svg width="64" height="64" viewBox="0 0 64 64" fill="none" xmlns="http://www.w3.org/2000/svg">
<path d="M31.9813 63.9597C49.6178 63.9597 63.9626 49.6149 63.9626 31.9813C63.9626 14.3448 49.6178 0 31.9813 0C14.3448 0 -1.52588e-05 14.3448 -1.52588e-05 31.9813C0.00283813 49.6149 14.3476 63.9597 31.9813 63.9597ZM31.9813 0.579041C49.2955 0.579041 63.3835 14.6671 63.3835 31.9813C63.3835 49.2955 49.2983 63.3807 31.9841 63.3807C14.67 63.3807 0.581882 49.2955 0.581882 31.9813C0.581882 14.6671 14.6671 0.579041 31.9813 0.579041Z" fill="#303030"/>
<path d="M18.7952 43.5762L33.9905 44.9253C34.0036 43.6998 34.0878 39.4526 34.6953 37.5197C35.3869 35.3132 41.6643 36.1153 43.2607 36.3573C44.1548 31.8602 45.6722 29.0121 45.738 28.8911C45.8169 28.7439 46.001 28.6886 46.1482 28.7675C46.2955 28.8464 46.3507 29.0305 46.2718 29.1778C46.2561 29.2067 44.6676 32.1942 43.7998 36.757C43.7682 36.9174 43.6131 37.0252 43.4526 36.9989C40.5256 36.5151 35.7183 36.2757 35.2738 37.6985C34.6032 39.8339 34.5953 45.2014 34.5953 45.254C34.5953 45.3382 34.5585 45.4197 34.498 45.4776C34.4428 45.5275 34.3692 45.5565 34.2929 45.5565C34.285 45.5565 34.2745 45.5565 34.2666 45.5565L18.7452 44.1784C18.5796 44.1627 18.456 44.0154 18.4717 43.8497C18.4796 43.684 18.6295 43.563 18.7952 43.5762Z" fill="#303030"/>
<path d="M15.8682 36.1311C16.0944 35.7445 16.4626 35.5052 16.9649 35.4184C18.5454 35.1449 27.9524 36.1706 29.7275 36.3678C29.8406 35.7708 30.0615 34.2455 29.6749 32.8911C29.2726 31.4815 28.4336 28.5493 30.8268 27.805C31.9471 27.4552 33.1989 27.6183 34.6453 27.805C35.8182 27.9575 37.1489 28.1285 38.6401 28.0522C39.4159 28.0128 40.0628 27.9838 40.6493 27.9575C42.5585 27.8734 43.8235 27.8182 46.7531 27.4736C47.3449 27.2948 47.9865 27.4184 48.4704 27.8103C48.9648 28.21 49.2252 28.8228 49.1647 29.4565L47.2791 49.6564C47.2686 49.7853 47.1765 49.8905 47.0529 49.922L46.9793 49.9404V50.4664C46.9793 50.5769 46.9057 50.6742 46.7979 50.7031L45.2962 51.0949C45.141 51.1344 44.9911 51.0187 44.9911 50.8582V50.4401L38.456 52.0838V52.6281C38.456 52.7386 38.385 52.8359 38.2771 52.8701L36.2075 53.5091C36.168 53.5223 36.1259 53.5249 36.0865 53.517L34.5217 53.2251C34.4034 53.2041 34.3166 53.0989 34.3166 52.9779V52.4546L18.4113 50.6978V50.9819C18.4113 51.1055 18.3035 51.2028 18.1799 51.1896L16.836 51.0318C16.7308 51.0187 16.6519 50.9293 16.6519 50.8241V50.4874C16.5388 50.4427 16.4573 50.3375 16.4573 50.2087V39.5183L15.8446 38.3533C15.8367 38.3402 15.8314 38.327 15.8261 38.3139C15.8025 38.2613 15.3659 36.9911 15.8682 36.1311ZM16.3863 38.0956L17.0227 39.308C17.0464 39.3527 17.0569 39.4 17.0569 39.45V49.9457L35.8472 52.0206L36.189 39.6367C36.1943 39.4684 36.3337 39.3343 36.4994 39.3421C36.6677 39.3474 36.7992 39.4868 36.7939 39.6525L36.4547 51.9654L46.6953 49.3908L48.5625 29.404C48.6019 28.9753 48.4257 28.5571 48.0891 28.2863C47.7525 28.0154 47.3238 27.9339 46.9057 28.0654C46.8873 28.0706 46.8689 28.0759 46.8478 28.0785C43.8761 28.4283 42.6006 28.4835 40.6729 28.5703C40.0891 28.5966 39.4422 28.6255 38.669 28.665C37.1226 28.7439 35.763 28.5703 34.5638 28.4151C33.1858 28.2363 31.9971 28.0838 31.003 28.3941C29.3962 28.8938 29.6933 30.7767 30.2535 32.736C30.7873 34.6084 30.2772 36.6965 30.2561 36.7833C30.2193 36.9306 30.0825 37.0279 29.9274 37.0095C26.0457 36.5703 18.3639 35.7971 17.0622 36.0233C16.7413 36.0785 16.5204 36.2179 16.3863 36.4441C16.097 36.9358 16.2837 37.7826 16.3863 38.0956Z" fill="#303030"/>
<path d="M20.6255 34.8793C20.7939 34.8793 20.928 34.7425 20.928 34.5769V21.8116C20.928 21.6433 20.7912 21.5092 20.6255 21.5092C20.4572 21.5092 20.3231 21.6459 20.3231 21.8116V34.5769C20.3231 34.7452 20.4599 34.8793 20.6255 34.8793Z" fill="#303030"/>
<path d="M15.0924 21.162H26.1614C26.2587 21.162 26.3508 21.1147 26.4086 21.0331C26.4665 20.9543 26.4796 20.8517 26.4481 20.757L22.903 10.64C22.861 10.519 22.7453 10.4375 22.6164 10.4375H18.6374C18.5086 10.4375 18.3955 10.519 18.3508 10.64L14.8057 20.757C14.7742 20.8491 14.7873 20.9516 14.8452 21.0331C14.903 21.1147 14.9951 21.162 15.0924 21.162Z" fill="#303030"/>
<path d="M19.2554 23.7787C19.4237 23.7787 19.5579 23.642 19.5579 23.4763V21.8116C19.5579 21.6433 19.4211 21.5092 19.2554 21.5092C19.0871 21.5092 18.953 21.6459 18.953 21.8116V23.4763C18.953 23.642 19.0871 23.7787 19.2554 23.7787Z" fill="#303030"/>
<path d="M23.0924 23.3579C23.9445 23.3579 24.6387 22.6637 24.6387 21.8116C24.6387 21.6433 24.502 21.5092 24.3363 21.5092C24.168 21.5092 24.0339 21.6459 24.0339 21.8116C24.0339 22.3297 23.6105 22.7531 23.0924 22.7531C22.5743 22.7531 22.1509 22.3297 22.1509 21.8116C22.1509 21.6433 22.0141 21.5092 21.8485 21.5092C21.6802 21.5092 21.546 21.6459 21.546 21.8116C21.546 22.6637 22.2403 23.3579 23.0924 23.3579Z" fill="#303030"/>
</svg>
