<svg width="32" height="32" viewBox="0 0 32 32" fill="none" xmlns="http://www.w3.org/2000/svg">
<g clip-path="url(#clip0_405_175)">
<path d="M13.3629 21.8444C8.35242 21.8444 4.27627 25.9205 4.27627 30.931C4.27627 31.5215 4.75483 32 5.34526 32H21.381C21.9714 32 22.45 31.5215 22.4497 30.931C22.4497 25.9205 18.3734 21.8444 13.3629 21.8444ZM6.49663 29.862C7.01225 26.5363 9.89503 23.9823 13.3633 23.9823C16.8316 23.9823 19.7144 26.5363 20.23 29.862H6.49663Z" fill="#606060"/>
<path d="M29.1563 2.38027C27.6793 0.90291 25.7087 0.0893555 23.6077 0.0893555C21.5071 0.0893555 19.5369 0.90291 18.0595 2.38027C15 5.4398 15 10.4183 18.0595 13.4778C18.2598 13.6784 18.5317 13.791 18.8153 13.791C19.099 13.791 19.3705 13.6784 19.5711 13.4775L29.1564 3.89194C29.574 3.47457 29.574 2.79752 29.1563 2.38027ZM18.8863 11.1391C17.3754 8.91833 17.6035 5.85986 19.5711 3.89219C20.6448 2.81889 22.078 2.22771 23.6078 2.22771C24.7727 2.22771 25.8813 2.57014 26.8181 3.20726L18.8863 11.1391Z" fill="#606060"/>
<path d="M16.8216 0.243708C16.4046 -0.099101 15.7992 -0.0780387 15.4079 0.292895L2.86482 12.159C2.65669 12.3561 2.53626 12.6283 2.53057 12.9152C2.52488 13.2017 2.63463 13.4786 2.83525 13.6835L12.599 23.661L14.1273 22.1654L5.12398 12.9651L16.1922 2.49437L18.0648 4.03342L19.4228 2.38181L16.8216 0.243708Z" fill="#606060"/>
</g>
<defs>
<clipPath id="clip0_405_175">
<rect width="32" height="32" fill="white"/>
</clipPath>
</defs>
</svg>
