<svg width="32" height="32" viewBox="0 0 32 32" fill="none" xmlns="http://www.w3.org/2000/svg">
<g clip-path="url(#clip0_405_101)">
<path d="M25.3336 0H6.76681C5.25467 0 3.92696 1.24396 3.92696 2.7164V30.1823C3.92696 30.6751 4.06413 31.0859 4.28522 31.4033C4.54962 31.7827 4.97534 32.0002 5.43184 32C5.86345 32 6.32298 31.8079 6.74734 31.4454L15.0541 24.3926C15.3107 24.1734 15.6792 24.0479 16.0623 24.0479C16.4454 24.0479 16.8131 24.1734 17.0704 24.3932L25.3494 31.4443C25.7753 31.8079 26.2031 32.0002 26.634 32.0002C27.3626 32.0002 28.0728 31.4382 28.0728 30.1824V2.7164C28.0728 1.24396 26.8457 0 25.3336 0Z" fill="#303030"/>
</g>
<defs>
<clipPath id="clip0_405_101">
<rect width="32" height="32" fill="white"/>
</clipPath>
</defs>
</svg>
