<svg width="32" height="32" viewBox="0 0 32 32" fill="none" xmlns="http://www.w3.org/2000/svg">
<g clip-path="url(#clip0_405_78)">
<path d="M5.4316 31.25H5.43184C5.64007 31.25 5.9332 31.1545 6.26021 30.8751L6.26192 30.8737L14.567 23.8223C14.5674 23.8219 14.5678 23.8216 14.5683 23.8212C14.9795 23.4705 15.5279 23.2979 16.0623 23.2979C16.5976 23.2979 17.1452 23.4711 17.5567 23.8222L5.4316 31.25ZM5.4316 31.25C5.21698 31.2501 5.02272 31.1497 4.90062 30.9746L5.4316 31.25ZM25.8357 30.8734L17.5575 23.8228L4.90054 30.9745C4.7727 30.7909 4.67696 30.5318 4.67696 30.1823V2.7164C4.67696 1.69376 5.63239 0.75 6.76681 0.75H25.3336C26.4326 0.75 27.3228 1.65923 27.3228 2.7164V30.1824C27.3228 30.669 27.1873 30.9297 27.07 31.0595C26.9536 31.1884 26.8016 31.2502 26.634 31.2502C26.4391 31.2502 26.1777 31.1653 25.8364 30.8739L25.8357 30.8734Z" stroke="#BDBDBD" stroke-width="1.5"/>
</g>
<defs>
<clipPath id="clip0_405_78">
<rect width="32" height="32" fill="white"/>
</clipPath>
</defs>
</svg>
