<svg width="32" height="32" viewBox="0 0 32 32" fill="none" xmlns="http://www.w3.org/2000/svg">
<path d="M29.7143 18.2857H18.2857V29.7143C18.2857 30.9714 17.2571 32 16 32C14.7429 32 13.7143 30.9714 13.7143 29.7143V18.2857H2.28571C1.02857 18.2857 0 17.2571 0 16C0 14.7429 1.02857 13.7143 2.28571 13.7143H13.7143V2.28571C13.7143 1.02857 14.7429 0 16 0C17.2571 0 18.2857 1.02857 18.2857 2.28571V13.7143H29.7143C30.9714 13.7143 32 14.7429 32 16C32 17.2571 30.9714 18.2857 29.7143 18.2857Z" fill="#909090"/>
</svg>
