<svg width="32" height="32" viewBox="0 0 32 32" fill="none" xmlns="http://www.w3.org/2000/svg">
<path fill-rule="evenodd" clip-rule="evenodd" d="M25.9999 28C25.9999 28 27.9999 28 27.9999 26C27.9999 24 25.9999 18 15.9999 18C5.99994 18 3.99994 24 3.99994 26C3.99994 28 5.99994 28 5.99994 28H25.9999ZM6.00994 26.112V26.108V26.112ZM6.04394 26H25.9559C25.9653 25.9989 25.9746 25.9976 25.9839 25.996L25.9999 25.992C25.9979 25.5 25.6919 24.02 24.3359 22.664C23.0319 21.36 20.5779 20 15.9999 20C11.4199 20 8.96794 21.36 7.66394 22.664C6.30794 24.02 6.00394 25.5 5.99994 25.992C6.01458 25.9948 6.02924 25.9975 6.04394 26V26ZM25.9919 26.112V26.108V26.112ZM15.9999 14C17.0608 14 18.0782 13.5786 18.8284 12.8284C19.5785 12.0783 19.9999 11.0609 19.9999 10C19.9999 8.93913 19.5785 7.92172 18.8284 7.17157C18.0782 6.42143 17.0608 6 15.9999 6C14.9391 6 13.9217 6.42143 13.1715 7.17157C12.4214 7.92172 11.9999 8.93913 11.9999 10C11.9999 11.0609 12.4214 12.0783 13.1715 12.8284C13.9217 13.5786 14.9391 14 15.9999 14V14ZM21.9999 10C21.9999 11.5913 21.3678 13.1174 20.2426 14.2426C19.1174 15.3679 17.5912 16 15.9999 16C14.4086 16 12.8825 15.3679 11.7573 14.2426C10.6321 13.1174 9.99994 11.5913 9.99994 10C9.99994 8.4087 10.6321 6.88258 11.7573 5.75736C12.8825 4.63214 14.4086 4 15.9999 4C17.5912 4 19.1174 4.63214 20.2426 5.75736C21.3678 6.88258 21.9999 8.4087 21.9999 10V10Z" fill="#BDBDBD"/>
</svg>
