<svg width="32" height="32" viewBox="0 0 32 32" fill="none" xmlns="http://www.w3.org/2000/svg">
<g clip-path="url(#clip0_405_151)">
<path d="M31.9719 12.3597C31.9043 12.1524 31.725 12.0011 31.5091 11.9696L21.1473 10.4638L16.5134 1.07462C16.4172 0.878727 16.2179 0.755005 16.0002 0.755005C15.7826 0.755005 15.5827 0.878727 15.487 1.07462L10.8526 10.4644L0.490816 11.9702C0.274875 12.0017 0.0961644 12.1524 0.0280025 12.3603C-0.0390138 12.5671 0.0165467 12.795 0.172918 12.9468L7.6713 20.2556L5.90081 30.5761C5.86415 30.7909 5.95236 31.008 6.1282 31.1363C6.3052 31.2658 6.53947 31.2824 6.73135 31.1798L16.0002 26.3077L25.2679 31.1798C25.3516 31.2239 25.4438 31.2457 25.5349 31.2457C25.6534 31.2457 25.7714 31.2091 25.8717 31.1363C26.0481 31.008 26.1363 30.7909 26.0991 30.5761L24.3291 20.2562L31.8275 12.9468C31.9833 12.7939 32.0395 12.5665 31.9719 12.3597Z" fill="white"/>
</g>
<defs>
<clipPath id="clip0_405_151">
<rect width="32" height="32" fill="white"/>
</clipPath>
</defs>
</svg>
