<svg width="32" height="32" viewBox="0 0 32 32" fill="none" xmlns="http://www.w3.org/2000/svg">
<path fill-rule="evenodd" clip-rule="evenodd" d="M5.99994 28C5.99994 28 3.99994 28 3.99994 26C3.99994 24 5.99994 18 15.9999 18C25.9999 18 27.9999 24 27.9999 26C27.9999 28 25.9999 28 25.9999 28H5.99994ZM15.9999 16C17.5912 16 19.1174 15.3679 20.2426 14.2426C21.3678 13.1174 21.9999 11.5913 21.9999 10C21.9999 8.4087 21.3678 6.88258 20.2426 5.75736C19.1174 4.63214 17.5912 4 15.9999 4C14.4086 4 12.8825 4.63214 11.7573 5.75736C10.6321 6.88258 9.99994 8.4087 9.99994 10C9.99994 11.5913 10.6321 13.1174 11.7573 14.2426C12.8825 15.3679 14.4086 16 15.9999 16V16Z" fill="#303030"/>
</svg>
