<svg width="32" height="32" viewBox="0 0 32 32" fill="none" xmlns="http://www.w3.org/2000/svg">
<g clip-path="url(#clip0_405_205)">
<path d="M31.9719 12.3597C31.9043 12.1524 31.7251 12.0011 31.5091 11.9696L21.1474 10.4638L16.5135 1.07462C16.4173 0.878727 16.2179 0.755005 16.0003 0.755005C15.7826 0.755005 15.5827 0.878727 15.4871 1.07462L10.8526 10.4644L0.490877 11.9702C0.274936 12.0017 0.0962254 12.1524 0.0280635 12.3603C-0.0389528 12.5671 0.0166078 12.795 0.172979 12.9468L7.67136 20.2556L5.90087 30.5761C5.86421 30.7909 5.95242 31.008 6.12827 31.1363C6.30526 31.2658 6.53953 31.2824 6.73141 31.1798L16.0003 26.3077L25.268 31.1798C25.3516 31.2239 25.4439 31.2457 25.5349 31.2457C25.6535 31.2457 25.7715 31.2091 25.8717 31.1363C26.0481 31.008 26.1364 30.7909 26.0991 30.5761L24.3292 20.2562L31.8276 12.9468C31.9834 12.7939 32.0395 12.5665 31.9719 12.3597Z" fill="#F2C94C"/>
</g>
<defs>
<clipPath id="clip0_405_205">
<rect width="32" height="32" fill="white"/>
</clipPath>
</defs>
</svg>
