<svg width="32" height="32" viewBox="0 0 32 32" fill="none" xmlns="http://www.w3.org/2000/svg">
<path d="M14.6666 2.66663C21.2906 2.66663 26.6666 8.04263 26.6666 14.6666C26.6666 21.2906 21.2906 26.6666 14.6666 26.6666C8.0426 26.6666 2.6666 21.2906 2.6666 14.6666C2.6666 8.04263 8.0426 2.66663 14.6666 2.66663ZM14.6666 24C19.8226 24 23.9999 19.8226 23.9999 14.6666C23.9999 9.50929 19.8226 5.33329 14.6666 5.33329C9.50926 5.33329 5.33326 9.50929 5.33326 14.6666C5.33326 19.8226 9.50926 24 14.6666 24ZM25.9799 24.0946L29.7519 27.8653L27.8653 29.752L24.0946 25.98L25.9799 24.0946V24.0946Z" fill="#808080"/>
</svg>
