<svg width="32" height="32" viewBox="0 0 32 32" fill="none" xmlns="http://www.w3.org/2000/svg">
<g clip-path="url(#clip0_405_160)">
<path d="M31.4999 4.5H0.499939C0.223814 4.5 -6.10352e-05 4.72387 -6.10352e-05 5V8C-6.10352e-05 8.27613 0.223814 8.5 0.499939 8.5H1.99994V27C1.99994 27.2761 2.22381 27.5 2.49994 27.5H4.49994C4.77606 27.5 4.99994 27.2761 4.99994 27V8.5H26.9999V27C26.9999 27.2761 27.2238 27.5 27.4999 27.5H29.4999C29.7761 27.5 29.9999 27.2761 29.9999 27V8.5H31.4999C31.7761 8.5 31.9999 8.27613 31.9999 8V5C31.9999 4.72387 31.7761 4.5 31.4999 4.5ZM30.9999 7.5H29.4999C29.2238 7.5 28.9999 7.72387 28.9999 8V26.5H27.9999V8C27.9999 7.72387 27.7761 7.5 27.4999 7.5H4.49994C4.22381 7.5 3.99994 7.72387 3.99994 8V26.5H2.99994V8C2.99994 7.72387 2.77606 7.5 2.49994 7.5H0.999939V5.5H30.9999V7.5Z" fill="#909090"/>
</g>
<defs>
<clipPath id="clip0_405_160">
<rect width="32" height="32" fill="white"/>
</clipPath>
</defs>
</svg>
